<svg xmlns="http://www.w3.org/2000/svg"  viewBox="0 0 80 80" width="80px" height="80px"><path fill="#66798f" d="M3,77V2H2v76h76v-1H3z"/><path fill="#b0c1d4" d="M77,38.5c0,0.276,0.224,0.5,0.5,0.5s0.5-0.224,0.5-0.5S77.776,38,77.5,38S77,38.224,77,38.5z M75,38.5c0,0.276,0.224,0.5,0.5,0.5s0.5-0.224,0.5-0.5S75.776,38,75.5,38S75,38.224,75,38.5z M73,38.5c0,0.276,0.224,0.5,0.5,0.5	s0.5-0.224,0.5-0.5S73.776,38,73.5,38S73,38.224,73,38.5z M71,38.5c0,0.276,0.224,0.5,0.5,0.5s0.5-0.224,0.5-0.5S71.776,38,71.5,38	S71,38.224,71,38.5z M69,38.5c0,0.276,0.224,0.5,0.5,0.5s0.5-0.224,0.5-0.5S69.776,38,69.5,38S69,38.224,69,38.5z M67,38.5	c0,0.276,0.224,0.5,0.5,0.5s0.5-0.224,0.5-0.5S67.776,38,67.5,38S67,38.224,67,38.5z M65,38.5c0,0.276,0.224,0.5,0.5,0.5	s0.5-0.224,0.5-0.5S65.776,38,65.5,38S65,38.224,65,38.5z M63,38.5c0,0.276,0.224,0.5,0.5,0.5s0.5-0.224,0.5-0.5S63.776,38,63.5,38	S63,38.224,63,38.5z M61,38.5c0,0.276,0.224,0.5,0.5,0.5s0.5-0.224,0.5-0.5S61.776,38,61.5,38S61,38.224,61,38.5z M59,38.5	c0,0.276,0.224,0.5,0.5,0.5s0.5-0.224,0.5-0.5S59.776,38,59.5,38S59,38.224,59,38.5z M57,38.5c0,0.276,0.224,0.5,0.5,0.5	s0.5-0.224,0.5-0.5S57.776,38,57.5,38S57,38.224,57,38.5z M55,38.5c0,0.276,0.224,0.5,0.5,0.5s0.5-0.224,0.5-0.5S55.776,38,55.5,38	S55,38.224,55,38.5z M53,38.5c0,0.276,0.224,0.5,0.5,0.5s0.5-0.224,0.5-0.5S53.776,38,53.5,38S53,38.224,53,38.5z M51,38.5	c0,0.276,0.224,0.5,0.5,0.5s0.5-0.224,0.5-0.5S51.776,38,51.5,38S51,38.224,51,38.5z M49,38.5c0,0.276,0.224,0.5,0.5,0.5	s0.5-0.224,0.5-0.5S49.776,38,49.5,38S49,38.224,49,38.5z M47,38.5c0,0.276,0.224,0.5,0.5,0.5s0.5-0.224,0.5-0.5S47.776,38,47.5,38	S47,38.224,47,38.5z M45,38.5c0,0.276,0.224,0.5,0.5,0.5s0.5-0.224,0.5-0.5S45.776,38,45.5,38S45,38.224,45,38.5z M43,38.5	c0,0.276,0.224,0.5,0.5,0.5s0.5-0.224,0.5-0.5S43.776,38,43.5,38S43,38.224,43,38.5z M41,38.5c0,0.276,0.224,0.5,0.5,0.5	s0.5-0.224,0.5-0.5S41.776,38,41.5,38S41,38.224,41,38.5z M39,38.5c0,0.276,0.224,0.5,0.5,0.5s0.5-0.224,0.5-0.5S39.776,38,39.5,38	S39,38.224,39,38.5z M37,38.5c0,0.276,0.224,0.5,0.5,0.5s0.5-0.224,0.5-0.5S37.776,38,37.5,38S37,38.224,37,38.5z M35,38.5	c0,0.276,0.224,0.5,0.5,0.5s0.5-0.224,0.5-0.5S35.776,38,35.5,38S35,38.224,35,38.5z M33,38.5c0,0.276,0.224,0.5,0.5,0.5	s0.5-0.224,0.5-0.5S33.776,38,33.5,38S33,38.224,33,38.5z M31,38.5c0,0.276,0.224,0.5,0.5,0.5s0.5-0.224,0.5-0.5S31.776,38,31.5,38	S31,38.224,31,38.5z M29,38.5c0,0.276,0.224,0.5,0.5,0.5s0.5-0.224,0.5-0.5S29.776,38,29.5,38S29,38.224,29,38.5z M27,38.5	c0,0.276,0.224,0.5,0.5,0.5s0.5-0.224,0.5-0.5S27.776,38,27.5,38S27,38.224,27,38.5z M25,38.5c0,0.276,0.224,0.5,0.5,0.5	s0.5-0.224,0.5-0.5S25.776,38,25.5,38S25,38.224,25,38.5z M23,38.5c0,0.276,0.224,0.5,0.5,0.5s0.5-0.224,0.5-0.5S23.776,38,23.5,38	S23,38.224,23,38.5z M21,38.5c0,0.276,0.224,0.5,0.5,0.5s0.5-0.224,0.5-0.5S21.776,38,21.5,38S21,38.224,21,38.5z M19,38.5	c0,0.276,0.224,0.5,0.5,0.5s0.5-0.224,0.5-0.5S19.776,38,19.5,38S19,38.224,19,38.5z M17,38.5c0,0.276,0.224,0.5,0.5,0.5	s0.5-0.224,0.5-0.5S17.776,38,17.5,38S17,38.224,17,38.5z M15,38.5c0,0.276,0.224,0.5,0.5,0.5s0.5-0.224,0.5-0.5S15.776,38,15.5,38	S15,38.224,15,38.5z M13,38.5c0,0.276,0.224,0.5,0.5,0.5s0.5-0.224,0.5-0.5S13.776,38,13.5,38S13,38.224,13,38.5z M11,38.5	c0,0.276,0.224,0.5,0.5,0.5s0.5-0.224,0.5-0.5S11.776,38,11.5,38S11,38.224,11,38.5z M9,38.5C9,38.776,9.224,39,9.5,39	s0.5-0.224,0.5-0.5S9.776,38,9.5,38S9,38.224,9,38.5z M7,38.5C7,38.776,7.224,39,7.5,39S8,38.776,8,38.5S7.776,38,7.5,38	S7,38.224,7,38.5z M5,38.5C5,38.776,5.224,39,5.5,39S6,38.776,6,38.5S5.776,38,5.5,38S5,38.224,5,38.5z M3,38.5	C3,38.776,3.224,39,3.5,39S4,38.776,4,38.5S3.776,38,3.5,38S3,38.224,3,38.5z M77,59.5c0,0.276,0.224,0.5,0.5,0.5s0.5-0.224,0.5-0.5	S77.776,59,77.5,59S77,59.224,77,59.5z M75,59.5c0,0.276,0.224,0.5,0.5,0.5s0.5-0.224,0.5-0.5S75.776,59,75.5,59S75,59.224,75,59.5z M73,59.5c0,0.276,0.224,0.5,0.5,0.5s0.5-0.224,0.5-0.5S73.776,59,73.5,59S73,59.224,73,59.5z M71,59.5c0,0.276,0.224,0.5,0.5,0.5	s0.5-0.224,0.5-0.5S71.776,59,71.5,59S71,59.224,71,59.5z M69,59.5c0,0.276,0.224,0.5,0.5,0.5s0.5-0.224,0.5-0.5S69.776,59,69.5,59	S69,59.224,69,59.5z M67,59.5c0,0.276,0.224,0.5,0.5,0.5s0.5-0.224,0.5-0.5S67.776,59,67.5,59S67,59.224,67,59.5z M65,59.5	c0,0.276,0.224,0.5,0.5,0.5s0.5-0.224,0.5-0.5S65.776,59,65.5,59S65,59.224,65,59.5z M63,59.5c0,0.276,0.224,0.5,0.5,0.5	s0.5-0.224,0.5-0.5S63.776,59,63.5,59S63,59.224,63,59.5z M61,59.5c0,0.276,0.224,0.5,0.5,0.5s0.5-0.224,0.5-0.5S61.776,59,61.5,59	S61,59.224,61,59.5z M59,59.5c0,0.276,0.224,0.5,0.5,0.5s0.5-0.224,0.5-0.5S59.776,59,59.5,59S59,59.224,59,59.5z M57,59.5	c0,0.276,0.224,0.5,0.5,0.5s0.5-0.224,0.5-0.5S57.776,59,57.5,59S57,59.224,57,59.5z M55,59.5c0,0.276,0.224,0.5,0.5,0.5	s0.5-0.224,0.5-0.5S55.776,59,55.5,59S55,59.224,55,59.5z M53,59.5c0,0.276,0.224,0.5,0.5,0.5s0.5-0.224,0.5-0.5S53.776,59,53.5,59	S53,59.224,53,59.5z M51,59.5c0,0.276,0.224,0.5,0.5,0.5s0.5-0.224,0.5-0.5S51.776,59,51.5,59S51,59.224,51,59.5z M49,59.5	c0,0.276,0.224,0.5,0.5,0.5s0.5-0.224,0.5-0.5S49.776,59,49.5,59S49,59.224,49,59.5z M47,59.5c0,0.276,0.224,0.5,0.5,0.5	s0.5-0.224,0.5-0.5S47.776,59,47.5,59S47,59.224,47,59.5z M45,59.5c0,0.276,0.224,0.5,0.5,0.5s0.5-0.224,0.5-0.5S45.776,59,45.5,59	S45,59.224,45,59.5z M43,59.5c0,0.276,0.224,0.5,0.5,0.5s0.5-0.224,0.5-0.5S43.776,59,43.5,59S43,59.224,43,59.5z M41,59.5	c0,0.276,0.224,0.5,0.5,0.5s0.5-0.224,0.5-0.5S41.776,59,41.5,59S41,59.224,41,59.5z M39,59.5c0,0.276,0.224,0.5,0.5,0.5	s0.5-0.224,0.5-0.5S39.776,59,39.5,59S39,59.224,39,59.5z M37,59.5c0,0.276,0.224,0.5,0.5,0.5s0.5-0.224,0.5-0.5S37.776,59,37.5,59	S37,59.224,37,59.5z M35,59.5c0,0.276,0.224,0.5,0.5,0.5s0.5-0.224,0.5-0.5S35.776,59,35.5,59S35,59.224,35,59.5z M33,59.5	c0,0.276,0.224,0.5,0.5,0.5s0.5-0.224,0.5-0.5S33.776,59,33.5,59S33,59.224,33,59.5z M31,59.5c0,0.276,0.224,0.5,0.5,0.5	s0.5-0.224,0.5-0.5S31.776,59,31.5,59S31,59.224,31,59.5z M29,59.5c0,0.276,0.224,0.5,0.5,0.5s0.5-0.224,0.5-0.5S29.776,59,29.5,59	S29,59.224,29,59.5z M27,59.5c0,0.276,0.224,0.5,0.5,0.5s0.5-0.224,0.5-0.5S27.776,59,27.5,59S27,59.224,27,59.5z M25,59.5	c0,0.276,0.224,0.5,0.5,0.5s0.5-0.224,0.5-0.5S25.776,59,25.5,59S25,59.224,25,59.5z M23,59.5c0,0.276,0.224,0.5,0.5,0.5	s0.5-0.224,0.5-0.5S23.776,59,23.5,59S23,59.224,23,59.5z M21,59.5c0,0.276,0.224,0.5,0.5,0.5s0.5-0.224,0.5-0.5S21.776,59,21.5,59	S21,59.224,21,59.5z M19,59.5c0,0.276,0.224,0.5,0.5,0.5s0.5-0.224,0.5-0.5S19.776,59,19.5,59S19,59.224,19,59.5z M17,59.5	c0,0.276,0.224,0.5,0.5,0.5s0.5-0.224,0.5-0.5S17.776,59,17.5,59S17,59.224,17,59.5z M15,59.5c0,0.276,0.224,0.5,0.5,0.5	s0.5-0.224,0.5-0.5S15.776,59,15.5,59S15,59.224,15,59.5z M13,59.5c0,0.276,0.224,0.5,0.5,0.5s0.5-0.224,0.5-0.5S13.776,59,13.5,59	S13,59.224,13,59.5z M11,59.5c0,0.276,0.224,0.5,0.5,0.5s0.5-0.224,0.5-0.5S11.776,59,11.5,59S11,59.224,11,59.5z M9,59.5	C9,59.776,9.224,60,9.5,60s0.5-0.224,0.5-0.5S9.776,59,9.5,59S9,59.224,9,59.5z M7,59.5C7,59.776,7.224,60,7.5,60S8,59.776,8,59.5	S7.776,59,7.5,59S7,59.224,7,59.5z M5,59.5C5,59.776,5.224,60,5.5,60S6,59.776,6,59.5S5.776,59,5.5,59S5,59.224,5,59.5z M3,59.5	C3,59.776,3.224,60,3.5,60S4,59.776,4,59.5S3.776,59,3.5,59S3,59.224,3,59.5z"/><polygon fill="#c74343" points="14.061,59.061 11.939,56.939 32.5,36.379 48,51.879 68.439,31.439 70.561,33.561 48,56.121 32.5,40.621"/><path fill="#f78f8f" d="M32.5,34.5c-1.933,0-3.5,1.567-3.5,3.5s1.567,3.5,3.5,3.5S36,39.933,36,38S34.433,34.5,32.5,34.5z"/><path fill="#c74343" d="M32.5,42c-2.206,0-4-1.794-4-4s1.794-4,4-4s4,1.794,4,4S34.706,42,32.5,42z M32.5,35 c-1.654,0-3,1.346-3,3s1.346,3,3,3s3-1.346,3-3S34.154,35,32.5,35z"/><path fill="#f78f8f" d="M48,48.5c-1.933,0-3.5,1.567-3.5,3.5s1.567,3.5,3.5,3.5s3.5-1.567,3.5-3.5S49.933,48.5,48,48.5z"/><path fill="#c74343" d="M48,56c-2.206,0-4-1.794-4-4s1.794-4,4-4s4,1.794,4,4S50.206,56,48,56z M48,49c-1.654,0-3,1.346-3,3 s1.346,3,3,3s3-1.346,3-3S49.654,49,48,49z"/><path fill="#f78f8f" d="M13,54.5c-1.933,0-3.5,1.567-3.5,3.5s1.567,3.5,3.5,3.5s3.5-1.567,3.5-3.5S14.933,54.5,13,54.5z"/><path fill="#c74343" d="M13,62c-2.206,0-4-1.794-4-4s1.794-4,4-4s4,1.794,4,4S15.206,62,13,62z M13,55c-1.654,0-3,1.346-3,3 s1.346,3,3,3s3-1.346,3-3S14.654,55,13,55z"/><g><path fill="#f78f8f" d="M69,28.5c-1.933,0-3.5,1.567-3.5,3.5s1.567,3.5,3.5,3.5s3.5-1.567,3.5-3.5S70.933,28.5,69,28.5z"/><path fill="#c74343" d="M69,36c-2.206,0-4-1.794-4-4s1.794-4,4-4s4,1.794,4,4S71.206,36,69,36z M69,29c-1.654,0-3,1.346-3,3 s1.346,3,3,3s3-1.346,3-3S70.654,29,69,29z"/></g><g><circle cx="77.5" cy="17.5" r=".5" fill="#b0c1d4"/><circle cx="75.5" cy="17.5" r=".5" fill="#b0c1d4"/><circle cx="73.5" cy="17.5" r=".5" fill="#b0c1d4"/><circle cx="71.5" cy="17.5" r=".5" fill="#b0c1d4"/><circle cx="69.5" cy="17.5" r=".5" fill="#b0c1d4"/><circle cx="67.5" cy="17.5" r=".5" fill="#b0c1d4"/><circle cx="65.5" cy="17.5" r=".5" fill="#b0c1d4"/><circle cx="63.5" cy="17.5" r=".5" fill="#b0c1d4"/><circle cx="61.5" cy="17.5" r=".5" fill="#b0c1d4"/><circle cx="59.5" cy="17.5" r=".5" fill="#b0c1d4"/><circle cx="57.5" cy="17.5" r=".5" fill="#b0c1d4"/><circle cx="55.5" cy="17.5" r=".5" fill="#b0c1d4"/><circle cx="53.5" cy="17.5" r=".5" fill="#b0c1d4"/><circle cx="51.5" cy="17.5" r=".5" fill="#b0c1d4"/><circle cx="49.5" cy="17.5" r=".5" fill="#b0c1d4"/><circle cx="47.5" cy="17.5" r=".5" fill="#b0c1d4"/><circle cx="45.5" cy="17.5" r=".5" fill="#b0c1d4"/><circle cx="43.5" cy="17.5" r=".5" fill="#b0c1d4"/><circle cx="41.5" cy="17.5" r=".5" fill="#b0c1d4"/><circle cx="39.5" cy="17.5" r=".5" fill="#b0c1d4"/><circle cx="37.5" cy="17.5" r=".5" fill="#b0c1d4"/><circle cx="35.5" cy="17.5" r=".5" fill="#b0c1d4"/><circle cx="33.5" cy="17.5" r=".5" fill="#b0c1d4"/><circle cx="31.5" cy="17.5" r=".5" fill="#b0c1d4"/><circle cx="29.5" cy="17.5" r=".5" fill="#b0c1d4"/><circle cx="27.5" cy="17.5" r=".5" fill="#b0c1d4"/><circle cx="25.5" cy="17.5" r=".5" fill="#b0c1d4"/><circle cx="23.5" cy="17.5" r=".5" fill="#b0c1d4"/><circle cx="21.5" cy="17.5" r=".5" fill="#b0c1d4"/><circle cx="19.5" cy="17.5" r=".5" fill="#b0c1d4"/><circle cx="17.5" cy="17.5" r=".5" fill="#b0c1d4"/><circle cx="15.5" cy="17.5" r=".5" fill="#b0c1d4"/><circle cx="13.5" cy="17.5" r=".5" fill="#b0c1d4"/><circle cx="11.5" cy="17.5" r=".5" fill="#b0c1d4"/><circle cx="9.5" cy="17.5" r=".5" fill="#b0c1d4"/><circle cx="7.5" cy="17.5" r=".5" fill="#b0c1d4"/><circle cx="5.5" cy="17.5" r=".5" fill="#b0c1d4"/><circle cx="3.5" cy="17.5" r=".5" fill="#b0c1d4"/></g></svg>