<svg xmlns="http://www.w3.org/2000/svg"  viewBox="0 0 64 64" width="64px" height="64px"><rect width="8" height="24" x="52" y="26" fill="#85cbf8"/><rect width="10" height="6" x="51" y="20" fill="#ced9ed"/><path fill="#ed7899" d="M60,20h-8v-2c0-2.209,1.791-4,4-4h0c2.209,0,4,1.791,4,4V20z"/><path fill="#fbe99d" d="M56,55c-1.333-1.667-2.667-3.333-4-5c1.333-0.667,2.667-1.333,4-2c1.333,0.667,2.667,1.333,4,2	C58.667,51.667,57.333,53.333,56,55z"/><path fill="#f9dd8f" d="M13,8H9.375C6.404,8,4,10.415,4,13.4v43.2C4,59.585,6.404,62,9.375,62h32.25	C44.596,62,47,59.585,47,56.6V13.4c0-2.985-2.404-5.4-5.375-5.4C40.417,8,39.208,8,38,8"/><rect width="35" height="46" x="8" y="12" fill="#faefde"/><path fill="#8d6c9f" d="M41.625,63H9.375C5.859,63,3,60.129,3,56.6V13.4C3,9.871,5.859,7,9.375,7H13v2H9.375	C6.963,9,5,10.974,5,13.4v43.2C5,59.026,6.963,61,9.375,61h32.25C44.037,61,46,59.026,46,56.6V13.4c0-2.426-1.963-4.4-4.375-4.4H38	V7h3.625C45.141,7,48,9.871,48,13.4v43.2C48,60.129,45.141,63,41.625,63z"/><path fill="#8d6c9f" d="M41.654,59v-2C41.845,57,42,56.842,42,56.647V13.353C42,13.158,41.845,13,41.654,13H38v-2h3.654	C42.947,11,44,12.056,44,13.353v43.294C44,57.944,42.947,59,41.654,59z"/><path fill="#8d6c9f" d="M56,56c-0.304,0-0.591-0.138-0.781-0.375l-4-5C51.077,50.447,51,50.227,51,50V26c0-0.552,0.447-1,1-1	h8c0.553,0,1,0.448,1,1v24c0,0.227-0.077,0.447-0.219,0.625l-4,5C56.591,55.862,56.304,56,56,56z M53,49.649l3,3.75l3-3.75V27h-6	V49.649z"/><path fill="#8d6c9f" d="M61,27H51c-0.553,0-1-0.448-1-1v-6c0-0.552,0.447-1,1-1h10c0.553,0,1,0.448,1,1v6	C62,26.552,61.553,27,61,27z M52,25h8v-4h-8V25z"/><path fill="#8d6c9f" d="M61,20h-2v-2.847C58.569,15.879,57.354,15,56,15s-2.569,0.879-3,2.153V20h-2v-3	c0-0.095,0.014-0.189,0.04-0.28C51.679,14.53,53.718,13,56,13s4.321,1.53,4.96,3.72C60.986,16.811,61,16.905,61,17V20z"/><path fill="#8d6c9f" d="M59.553,50.895L56,49.118l-3.553,1.776l-0.895-1.789l4-2c0.281-0.141,0.613-0.141,0.895,0l4,2	L59.553,50.895z"/><path fill="#8d6c9f" d="M56,49c-0.553,0-1-0.448-1-1v-6c0-0.552,0.447-1,1-1s1,0.448,1,1v6C57,48.552,56.553,49,56,49z"/><path fill="#8d6c9f" d="M56,38c-0.553,0-1-0.448-1-1v-3c0-0.552,0.447-1,1-1s1,0.448,1,1v3C57,37.552,56.553,38,56,38z"/><path fill="#8d6c9f" d="M22,27h-8c-0.553,0-1-0.448-1-1s0.447-1,1-1h8c0.553,0,1,0.448,1,1S22.553,27,22,27z"/><path fill="#8d6c9f" d="M31,27h-4c-0.553,0-1-0.448-1-1s0.447-1,1-1h4c0.553,0,1,0.448,1,1S31.553,27,31,27z"/><path fill="#8d6c9f" d="M19,32h-5c-0.553,0-1-0.448-1-1s0.447-1,1-1h5c0.553,0,1,0.448,1,1S19.553,32,19,32z"/><path fill="#8d6c9f" d="M28,32h-4c-0.553,0-1-0.448-1-1s0.447-1,1-1h4c0.553,0,1,0.448,1,1S28.553,32,28,32z"/><path fill="#8d6c9f" d="M24,37H14c-0.553,0-1-0.448-1-1s0.447-1,1-1h10c0.553,0,1,0.448,1,1S24.553,37,24,37z"/><path fill="#8d6c9f" d="M33,37h-4c-0.553,0-1-0.448-1-1s0.447-1,1-1h4c0.553,0,1,0.448,1,1S33.553,37,33,37z"/><path fill="#c2cde7" d="M31.056,8c0-3.311-2.49-6-5.556-6c-3.065,0-5.556,2.689-5.556,6H13v6c0,1.658,1.243,3,2.778,3h19.444	C36.757,17,38,15.658,38,14V8H31.056z"/><path fill="#ced9ed" d="M37,17H14v0c0-2.761,2.239-5,5-5h13C34.761,12,37,14.239,37,17L37,17z"/><path fill="#efd8be" d="M42,57H9v0c0-2.761,2.239-5,5-5h23C39.761,52,42,54.239,42,57L42,57z"/><path fill="#8d6c9f" d="M35.223,18H15.777C13.694,18,12,16.206,12,14V8c0-0.552,0.447-1,1-1h6.011	c0.456-3.388,3.192-6,6.489-6s6.033,2.612,6.489,6H38c0.553,0,1,0.448,1,1v6C39,16.206,37.306,18,35.223,18z M14,9v5	c0,1.103,0.797,2,1.777,2h19.445C36.203,16,37,15.103,37,14V9h-5.944c-0.553,0-1-0.448-1-1c0-2.757-2.044-5-4.556-5	s-4.556,2.243-4.556,5c0,0.552-0.447,1-1,1H14z"/><path fill="#8d6c9f" d="M41.654,59H9.346C8.053,59,7,57.944,7,56.647V13.353C7,12.056,8.053,11,9.346,11H13v2H9.346	C9.155,13,9,13.158,9,13.353v43.294C9,56.842,9.155,57,9.346,57h32.309V59z"/><path fill="#8d6c9f" d="M13,54c-0.553,0-1-0.448-1-1v-2c0-0.552,0.447-1,1-1s1,0.448,1,1v2C14,53.552,13.553,54,13,54z"/><path fill="#8d6c9f" d="M18,54c-0.553,0-1-0.448-1-1v-2c0-0.552,0.447-1,1-1s1,0.448,1,1v2C19,53.552,18.553,54,18,54z"/><path fill="#8d6c9f" d="M23,54c-0.553,0-1-0.448-1-1v-2c0-0.552,0.447-1,1-1s1,0.448,1,1v2C24,53.552,23.553,54,23,54z"/><path fill="#8d6c9f" d="M28,54c-0.553,0-1-0.448-1-1v-2c0-0.552,0.447-1,1-1s1,0.448,1,1v2C29,53.552,28.553,54,28,54z"/><path fill="#8d6c9f" d="M33,54c-0.553,0-1-0.448-1-1v-2c0-0.552,0.447-1,1-1s1,0.448,1,1v2C34,53.552,33.553,54,33,54z"/><path fill="#8d6c9f" d="M38,54c-0.553,0-1-0.448-1-1v-2c0-0.552,0.447-1,1-1s1,0.448,1,1v2C39,53.552,38.553,54,38,54z"/></svg>