<svg xmlns="http://www.w3.org/2000/svg"  viewBox="0 0 48 48" width="48px" height="48px"><path d="M 23.96875 2.0214844 A 1.50015 1.50015 0 0 0 22.945312 2.4550781 L 20.484375 4.8886719 L 17.136719 4.0097656 A 1.50015 1.50015 0 0 0 15.308594 5.0664062 L 14.398438 8.4042969 L 11.060547 9.3144531 A 1.50015 1.50015 0 0 0 10.005859 11.140625 L 10.882812 14.490234 L 8.4492188 16.951172 A 1.50015 1.50015 0 0 0 8.4492188 19.060547 L 10.882812 21.521484 L 10.003906 24.867188 A 1.50015 1.50015 0 0 0 11.060547 26.695312 L 14.398438 27.605469 L 15.011719 29.851562 A 1.50015 1.50015 0 0 0 15 30.042969 L 15 44.5 A 1.50015 1.50015 0 0 0 17.332031 45.748047 L 23.722656 41.488281 C 23.894626 41.373635 24.105374 41.373635 24.277344 41.488281 L 30.667969 45.748047 A 1.50015 1.50015 0 0 0 33 44.5 L 33 30.042969 A 1.50015 1.50015 0 0 0 32.988281 29.851562 L 33.601562 27.605469 L 36.9375 26.695312 A 1.50015 1.50015 0 0 0 37.994141 24.869141 L 37.117188 21.521484 L 39.550781 19.060547 A 1.50015 1.50015 0 0 0 39.550781 16.951172 L 37.117188 14.490234 L 37.996094 11.142578 A 1.50015 1.50015 0 0 0 36.939453 9.3144531 L 33.601562 8.4042969 L 32.691406 5.0664062 A 1.50015 1.50015 0 0 0 30.863281 4.0097656 L 27.515625 4.8886719 L 25.054688 2.4550781 A 1.50015 1.50015 0 0 0 23.96875 2.0214844 z M 24 5.6308594 L 26.013672 7.6230469 A 1.50015 1.50015 0 0 0 27.449219 8.0078125 L 30.1875 7.2890625 L 30.933594 10.021484 A 1.50015 1.50015 0 0 0 31.986328 11.072266 L 34.716797 11.818359 L 33.998047 14.554688 A 1.50015 1.50015 0 0 0 34.382812 15.990234 L 36.375 18.005859 L 34.382812 20.019531 A 1.50015 1.50015 0 0 0 33.998047 21.455078 L 34.716797 24.193359 L 31.984375 24.9375 A 1.50015 1.50015 0 0 0 30.931641 25.990234 L 30.1875 28.720703 L 27.449219 28.003906 A 1.50015 1.50015 0 0 0 26.013672 28.386719 L 24 30.378906 L 21.986328 28.386719 A 1.50015 1.50015 0 0 0 20.550781 28.003906 L 17.8125 28.720703 L 17.066406 25.990234 A 1.50015 1.50015 0 0 0 16.013672 24.9375 L 13.283203 24.193359 L 14.001953 21.455078 A 1.50015 1.50015 0 0 0 13.617188 20.019531 L 11.625 18.005859 L 13.617188 15.990234 A 1.50015 1.50015 0 0 0 14.001953 14.554688 L 13.283203 11.816406 L 16.015625 11.072266 A 1.50015 1.50015 0 0 0 17.068359 10.019531 L 17.8125 7.2890625 L 20.550781 8.0078125 A 1.50015 1.50015 0 0 0 21.986328 7.6230469 L 24 5.6308594 z M 20.484375 31.121094 L 22.945312 33.554688 A 1.50015 1.50015 0 0 0 25.054688 33.554688 L 27.515625 31.121094 L 30 31.773438 L 30 41.697266 L 25.941406 38.992188 C 24.769376 38.210833 23.230624 38.210833 22.058594 38.992188 L 18 41.697266 L 18 31.773438 L 20.484375 31.121094 z"/></svg>